<?xml version="1.0" encoding="utf-8"?>
<!-- Generator: Adobe Illustrator 17.1.0, SVG Export Plug-In . SVG Version: 6.00 Build 0)  -->
<!DOCTYPE svg PUBLIC "-//W3C//DTD SVG 1.1//EN" "http://www.w3.org/Graphics/SVG/1.1/DTD/svg11.dtd">
<svg version="1.1" id="Layer_1" xmlns="http://www.w3.org/2000/svg" xmlns:xlink="http://www.w3.org/1999/xlink" x="0px" y="0px"
	 viewBox="0 0 351 129" enable-background="new 0 0 351 129" xml:space="preserve">
<g>
	<g>
		<g>
			<polygon fill="none" stroke="#FFFFFF" stroke-linejoin="round" stroke-miterlimit="10" points="27.6,102.3 27.6,85.2 44.6,68.8 
				44.6,84.9 			"/>
			<polygon fill="none" stroke="#FFFFFF" stroke-linejoin="round" stroke-miterlimit="10" points="61.6,102.3 61.6,85.2 44.6,68.8 
				44.6,84.9 			"/>
			<polyline fill="none" stroke="#FFFFFF" stroke-linejoin="round" stroke-miterlimit="10" points="40.5,96.9 44.6,92.6 48.6,96.9 
							"/>
			<polyline fill="none" stroke="#FFFFFF" stroke-linejoin="round" stroke-miterlimit="10" points="23.6,72.5 27.7,76.8 31.7,72.5 
							"/>
			<polygon fill="none" stroke="#FFFFFF" stroke-linejoin="round" stroke-miterlimit="10" points="61.4,102.3 61.4,85.2 78.4,68.8 
				78.4,84.9 			"/>
			<polygon fill="none" stroke="#FFFFFF" stroke-linejoin="round" stroke-miterlimit="10" points="95.4,102.3 95.4,85.2 78.4,68.8 
				78.4,84.9 			"/>
			<polyline fill="none" stroke="#FFFFFF" stroke-linejoin="round" stroke-miterlimit="10" points="74.3,96.9 78.4,92.6 82.4,96.9 
							"/>
			<polyline fill="none" stroke="#FFFFFF" stroke-linejoin="round" stroke-miterlimit="10" points="57.4,72.5 61.5,76.8 65.5,72.5 
							"/>
			<polygon fill="none" stroke="#FFFFFF" stroke-linejoin="round" stroke-miterlimit="10" points="95.7,102.3 95.7,85.2 112.7,68.8 
				112.7,84.9 			"/>
			<polygon fill="none" stroke="#FFFFFF" stroke-linejoin="round" stroke-miterlimit="10" points="129.7,102.3 129.7,85.2 
				112.7,68.8 112.7,84.9 			"/>
			<polyline fill="none" stroke="#FFFFFF" stroke-linejoin="round" stroke-miterlimit="10" points="108.6,96.9 112.7,92.6 
				116.7,96.9 			"/>
			<polyline fill="none" stroke="#FFFFFF" stroke-linejoin="round" stroke-miterlimit="10" points="91.6,72.5 95.7,76.8 99.7,72.5 
							"/>
			<polygon fill="none" stroke="#FFFFFF" stroke-linejoin="round" stroke-miterlimit="10" points="129.8,102.3 129.8,85.2 
				146.8,68.8 146.8,84.9 			"/>
			<polygon fill="none" stroke="#FFFFFF" stroke-linejoin="round" stroke-miterlimit="10" points="163.8,102.3 163.8,85.2 
				146.8,68.8 146.8,84.9 			"/>
			<polyline fill="none" stroke="#FFFFFF" stroke-linejoin="round" stroke-miterlimit="10" points="142.7,96.9 146.8,92.6 
				150.8,96.9 			"/>
			<polyline fill="none" stroke="#FFFFFF" stroke-linejoin="round" stroke-miterlimit="10" points="125.7,72.5 129.8,76.8 
				133.8,72.5 			"/>
			<polygon fill="none" stroke="#FFFFFF" stroke-linejoin="round" stroke-miterlimit="10" points="163.9,102.3 163.9,85.2 
				180.9,68.8 180.9,84.9 			"/>
			<polygon fill="none" stroke="#FFFFFF" stroke-linejoin="round" stroke-miterlimit="10" points="197.9,102.3 197.9,85.2 
				180.9,68.8 180.9,84.9 			"/>
			<polyline fill="none" stroke="#FFFFFF" stroke-linejoin="round" stroke-miterlimit="10" points="176.8,96.9 180.9,92.6 
				184.9,96.9 			"/>
			<polyline fill="none" stroke="#FFFFFF" stroke-linejoin="round" stroke-miterlimit="10" points="159.9,72.5 163.9,76.8 
				167.9,72.5 			"/>
			<polyline fill="none" stroke="#FFFFFF" stroke-linejoin="round" stroke-miterlimit="10" points="193.9,72.5 197.9,76.8 
				201.9,72.5 			"/>
		</g>
		<polygon fill="none" stroke="#FFFFFF" stroke-linejoin="round" stroke-miterlimit="10" points="198.3,102.3 198.3,85.2 
			215.3,68.8 215.3,84.9 		"/>
		<polygon fill="none" stroke="#FFFFFF" stroke-linejoin="round" stroke-miterlimit="10" points="232.3,102.3 232.3,85.2 
			215.3,68.8 215.3,84.9 		"/>
		<polyline fill="none" stroke="#FFFFFF" stroke-linejoin="round" stroke-miterlimit="10" points="211.2,96.9 215.3,92.6 
			219.3,96.9 		"/>
		<polygon fill="none" stroke="#FFFFFF" stroke-linejoin="round" stroke-miterlimit="10" points="232.1,102.3 232.1,85.2 
			249.1,68.8 249.1,84.9 		"/>
		<polygon fill="none" stroke="#FFFFFF" stroke-linejoin="round" stroke-miterlimit="10" points="266.1,102.3 266.1,85.2 
			249.1,68.8 249.1,84.9 		"/>
		<polyline fill="none" stroke="#FFFFFF" stroke-linejoin="round" stroke-miterlimit="10" points="245,96.9 249.1,92.6 253.1,96.9 
					"/>
		<polyline fill="none" stroke="#FFFFFF" stroke-linejoin="round" stroke-miterlimit="10" points="228.1,72.5 232.2,76.8 
			236.2,72.5 		"/>
		<polygon fill="none" stroke="#FFFFFF" stroke-linejoin="round" stroke-miterlimit="10" points="266.4,102.3 266.4,85.2 
			283.4,68.8 283.4,84.9 		"/>
		<polygon fill="none" stroke="#FFFFFF" stroke-linejoin="round" stroke-miterlimit="10" points="300.4,102.3 300.4,85.2 
			283.4,68.8 283.4,84.9 		"/>
		<polyline fill="none" stroke="#FFFFFF" stroke-linejoin="round" stroke-miterlimit="10" points="279.3,96.9 283.4,92.6 
			287.4,96.9 		"/>
		<polyline fill="none" stroke="#FFFFFF" stroke-linejoin="round" stroke-miterlimit="10" points="262.3,72.5 266.4,76.8 
			270.4,72.5 		"/>
		<polygon fill="none" stroke="#FFFFFF" stroke-linejoin="round" stroke-miterlimit="10" points="300.5,102.3 300.5,85.2 
			317.5,68.8 317.5,84.9 		"/>
		<polyline fill="none" stroke="#FFFFFF" stroke-linejoin="round" stroke-miterlimit="10" points="313.4,96.9 317.5,92.6 
			321.5,96.9 		"/>
		<polyline fill="none" stroke="#FFFFFF" stroke-linejoin="round" stroke-miterlimit="10" points="296.5,72.5 300.5,76.8 
			304.5,72.5 		"/>
	</g>
	<rect x="5.5" y="7.5" fill="none" stroke="#FFFFFF" stroke-linejoin="round" stroke-miterlimit="10" width="338" height="112"/>
</g>
</svg>
