<?xml version="1.0" encoding="utf-8"?>
<!-- Generator: Adobe Illustrator 17.1.0, SVG Export Plug-In . SVG Version: 6.00 Build 0)  -->
<!DOCTYPE svg PUBLIC "-//W3C//DTD SVG 1.1//EN" "http://www.w3.org/Graphics/SVG/1.1/DTD/svg11.dtd">
<svg version="1.1" id="Layer_1" xmlns="http://www.w3.org/2000/svg" xmlns:xlink="http://www.w3.org/1999/xlink" x="0px" y="0px"
	 viewBox="0 0 216.7 382.7" enable-background="new 0 0 216.7 382.7" xml:space="preserve">
<polygon fill="none" stroke="#FFFFFF" stroke-width="2" stroke-miterlimit="10" points="5.3,68.7 108.8,2.8 212.3,68.7 212.3,200.4 
	108.8,266.2 5.3,200.4 "/>
<line fill="none" stroke="#FFFFFF" stroke-width="2" stroke-miterlimit="10" x1="110.3" y1="3" x2="110.3" y2="144"/>
<line fill="none" stroke="#FFFFFF" stroke-width="2.5028" stroke-miterlimit="10" x1="7" y1="200.4" x2="109.8" y2="143.7"/>
<line fill="none" stroke="#FFFFFF" stroke-width="2.5028" stroke-miterlimit="10" x1="109.8" y1="143.7" x2="213.2" y2="200.4"/>
<g>
	<g>
		<line fill="none" stroke="#FFFFFF" stroke-width="2" stroke-miterlimit="10" x1="109.3" y1="275" x2="109.3" y2="370"/>
		<g>
			<path fill="#FFFFFF" d="M120.3,367.9c-5,2.7-8.2,6.9-11,11.4c-2.8-4.5-7-8.6-11-11.4v-2.7c4,2.8,8.2,6.3,11,10.5
				c2.9-4.2,6-7.8,11-10.5V367.9z"/>
			<path fill="#FFFFFF" d="M120.3,361.3c-5,2.7-8.2,6.9-11,11.4c-2.8-4.5-7-8.6-11-11.4v-2.7c4,2.8,8.2,6.3,11,10.5
				c2.9-4.2,6-7.8,11-10.5V361.3z"/>
		</g>
	</g>
</g>
</svg>
