<?xml version="1.0" encoding="utf-8"?>
<!-- Generator: Adobe Illustrator 17.1.0, SVG Export Plug-In . SVG Version: 6.00 Build 0)  -->
<!DOCTYPE svg PUBLIC "-//W3C//DTD SVG 1.1//EN" "http://www.w3.org/Graphics/SVG/1.1/DTD/svg11.dtd">
<svg version="1.1" id="Layer_1" xmlns="http://www.w3.org/2000/svg" xmlns:xlink="http://www.w3.org/1999/xlink" x="0px" y="0px"
	 viewBox="0 0 127.4 26.4" enable-background="new 0 0 127.4 26.4" xml:space="preserve">
<g>
	<polygon fill="none" stroke="#FFFFFF" stroke-width="0.7993" stroke-linejoin="round" stroke-miterlimit="10" points="4.2,25.4 
		4.2,13 19.1,1 19.1,12.8 	"/>
	<polygon fill="none" stroke="#FFFFFF" stroke-width="0.7993" stroke-linejoin="round" stroke-miterlimit="10" points="34.1,25.4 
		34.1,13 19.1,1 19.1,12.8 	"/>
	<polyline fill="none" stroke="#FFFFFF" stroke-width="0.7993" stroke-linejoin="round" stroke-miterlimit="10" points="15.6,21.5 
		19.1,18.4 22.6,21.5 	"/>
	<polyline fill="none" stroke="#FFFFFF" stroke-width="0.7993" stroke-linejoin="round" stroke-miterlimit="10" points="0.7,3.7 
		4.3,6.8 7.8,3.7 	"/>
	<polygon fill="none" stroke="#FFFFFF" stroke-width="0.7993" stroke-linejoin="round" stroke-miterlimit="10" points="33.9,25.4 
		33.9,13 48.8,1 48.8,12.8 	"/>
	<polygon fill="none" stroke="#FFFFFF" stroke-width="0.7993" stroke-linejoin="round" stroke-miterlimit="10" points="63.7,25.4 
		63.7,13 48.8,1 48.8,12.8 	"/>
	<polyline fill="none" stroke="#FFFFFF" stroke-width="0.7993" stroke-linejoin="round" stroke-miterlimit="10" points="45.2,21.5 
		48.8,18.4 52.3,21.5 	"/>
	<polyline fill="none" stroke="#FFFFFF" stroke-width="0.7993" stroke-linejoin="round" stroke-miterlimit="10" points="30.3,3.7 
		33.9,6.8 37.4,3.7 	"/>
	<polygon fill="none" stroke="#FFFFFF" stroke-width="0.7993" stroke-linejoin="round" stroke-miterlimit="10" points="64,25.4 
		64,13 78.9,1 78.9,12.8 	"/>
	<polygon fill="none" stroke="#FFFFFF" stroke-width="0.7993" stroke-linejoin="round" stroke-miterlimit="10" points="93.8,25.4 
		93.8,13 78.9,1 78.9,12.8 	"/>
	<polyline fill="none" stroke="#FFFFFF" stroke-width="0.7993" stroke-linejoin="round" stroke-miterlimit="10" points="75.3,21.5 
		78.9,18.4 82.4,21.5 	"/>
	<polyline fill="none" stroke="#FFFFFF" stroke-width="0.7993" stroke-linejoin="round" stroke-miterlimit="10" points="60.4,3.7 
		64,6.8 67.5,3.7 	"/>
	<polygon fill="none" stroke="#FFFFFF" stroke-width="0.7993" stroke-linejoin="round" stroke-miterlimit="10" points="93.9,25.4 
		93.9,13 108.8,1 108.8,12.8 	"/>
	<polygon fill="none" stroke="#FFFFFF" stroke-width="0.7993" stroke-linejoin="round" stroke-miterlimit="10" points="123.7,25.4 
		123.7,13 108.8,1 108.8,12.8 	"/>
	<polyline fill="none" stroke="#FFFFFF" stroke-width="0.7993" stroke-linejoin="round" stroke-miterlimit="10" points="105.2,21.5 
		108.8,18.4 112.3,21.5 	"/>
	<polyline fill="none" stroke="#FFFFFF" stroke-width="0.7993" stroke-linejoin="round" stroke-miterlimit="10" points="90.4,3.7 
		93.9,6.8 97.5,3.7 	"/>
	<polyline fill="none" stroke="#FFFFFF" stroke-width="0.7993" stroke-linejoin="round" stroke-miterlimit="10" points="120.3,3.7 
		123.9,6.8 127.4,3.7 	"/>
</g>
</svg>
