<?xml version="1.0" encoding="utf-8"?>
<!-- Generator: Adobe Illustrator 17.1.0, SVG Export Plug-In . SVG Version: 6.00 Build 0)  -->
<!DOCTYPE svg PUBLIC "-//W3C//DTD SVG 1.1//EN" "http://www.w3.org/Graphics/SVG/1.1/DTD/svg11.dtd">
<svg version="1.1" id="Layer_1" xmlns="http://www.w3.org/2000/svg" xmlns:xlink="http://www.w3.org/1999/xlink" x="0px" y="0px"
	 viewBox="0 0 14.3 114.7" enable-background="new 0 0 14.3 114.7" xml:space="preserve">
<g>
	<path fill="#777676" d="M4.1,5.6h3.9c0.5,0,1,0.1,1.4,0.2s0.7,0.4,0.9,0.6c0.2,0.3,0.4,0.6,0.5,0.9c0.1,0.3,0.2,0.7,0.2,1
		c0,0.4-0.1,0.7-0.2,1c-0.1,0.3-0.3,0.6-0.5,0.9c-0.2,0.3-0.5,0.5-0.9,0.6c-0.4,0.2-0.8,0.2-1.4,0.2H6v3.1H4.1V5.6z M6,9.7h1.5
		c0.2,0,0.4,0,0.6,0c0.2,0,0.4-0.1,0.5-0.2C8.9,9.4,9,9.3,9.1,9.1c0.1-0.2,0.1-0.4,0.1-0.7c0-0.3,0-0.5-0.1-0.7
		C9,7.6,8.9,7.5,8.7,7.4C8.5,7.3,8.4,7.2,8.2,7.2c-0.2,0-0.4,0-0.6,0H6V9.7z"/>
	<path fill="#777676" d="M11.8,22.1c0,0.6-0.1,1.2-0.4,1.8c-0.2,0.5-0.6,1-1,1.4c-0.4,0.4-0.9,0.7-1.4,1c-0.5,0.2-1.1,0.4-1.7,0.4
		c-0.6,0-1.2-0.1-1.8-0.4c-0.5-0.2-1-0.6-1.4-1c-0.4-0.4-0.7-0.9-1-1.4c-0.2-0.5-0.4-1.1-0.4-1.8s0.1-1.2,0.4-1.8
		c0.2-0.5,0.6-1,1-1.4s0.9-0.7,1.4-1c0.5-0.2,1.1-0.4,1.8-0.4c0.6,0,1.2,0.1,1.7,0.4c0.5,0.2,1,0.6,1.4,1c0.4,0.4,0.7,0.9,1,1.4
		C11.7,20.9,11.8,21.5,11.8,22.1z M7.3,19.4c-0.4,0-0.7,0.1-1,0.2C6,19.8,5.7,20,5.5,20.2c-0.2,0.2-0.4,0.5-0.6,0.8
		c-0.1,0.3-0.2,0.7-0.2,1c0,0.4,0.1,0.7,0.2,1C5,23.5,5.2,23.7,5.5,24c0.2,0.2,0.5,0.4,0.8,0.6c0.3,0.1,0.7,0.2,1,0.2s0.7-0.1,1-0.2
		c0.3-0.1,0.6-0.3,0.8-0.6c0.2-0.2,0.4-0.5,0.6-0.8c0.1-0.3,0.2-0.7,0.2-1c0-0.4-0.1-0.7-0.2-1c-0.1-0.3-0.3-0.6-0.6-0.8
		c-0.2-0.2-0.5-0.4-0.8-0.6C8,19.5,7.7,19.4,7.3,19.4z"/>
	<path fill="#777676" d="M8.7,35.4L8.7,35.4l2.3,3.2H8.8l-2.2-3.1H5.7v3.1H3.8V30h3.9c0.5,0,1,0.1,1.4,0.2c0.4,0.2,0.7,0.4,0.9,0.6
		c0.2,0.3,0.4,0.6,0.5,0.9c0.1,0.3,0.2,0.7,0.2,1c0,0.3,0,0.6-0.1,0.9c-0.1,0.3-0.2,0.6-0.4,0.8c-0.2,0.2-0.4,0.5-0.6,0.6
		C9.3,35.2,9,35.4,8.7,35.4z M7.2,31.5H5.7v2.6h1.5c0.2,0,0.4,0,0.6,0c0.2,0,0.4-0.1,0.5-0.2c0.2-0.1,0.3-0.2,0.4-0.4
		c0.1-0.2,0.1-0.4,0.1-0.7c0-0.3,0-0.5-0.1-0.7c-0.1-0.2-0.2-0.3-0.4-0.4c-0.1-0.1-0.3-0.2-0.5-0.2C7.6,31.5,7.4,31.5,7.2,31.5z"/>
	<path fill="#777676" d="M6.4,43.7l-2.8,0v-1.6h7.4v1.6l-2.7,0v7.1H6.4V43.7z"/>
	<path fill="#777676" d="M6.2,61.4V63l-1.8,0v-8.7h6.3v1.6H6.2v2h4v1.7h-4V61.4z"/>
	<path fill="#777676" d="M11.8,70.8c0,0.6-0.1,1.2-0.4,1.8c-0.2,0.5-0.6,1-1,1.4c-0.4,0.4-0.9,0.7-1.4,1c-0.5,0.2-1.1,0.4-1.7,0.4
		c-0.6,0-1.2-0.1-1.8-0.4c-0.5-0.2-1-0.6-1.4-1c-0.4-0.4-0.7-0.9-1-1.4C3,72,2.8,71.4,2.8,70.8S3,69.5,3.2,69c0.2-0.5,0.6-1,1-1.4
		c0.4-0.4,0.9-0.7,1.4-1c0.5-0.2,1.1-0.4,1.8-0.4c0.6,0,1.2,0.1,1.7,0.4c0.5,0.2,1,0.6,1.4,1c0.4,0.4,0.7,0.9,1,1.4
		C11.7,69.5,11.8,70.1,11.8,70.8z M7.3,68.1c-0.4,0-0.7,0.1-1,0.2c-0.3,0.1-0.6,0.3-0.8,0.6c-0.2,0.2-0.4,0.5-0.6,0.8
		c-0.1,0.3-0.2,0.7-0.2,1c0,0.4,0.1,0.7,0.2,1c0.1,0.3,0.3,0.6,0.6,0.8c0.2,0.2,0.5,0.4,0.8,0.6c0.3,0.1,0.7,0.2,1,0.2
		s0.7-0.1,1-0.2c0.3-0.1,0.6-0.3,0.8-0.6c0.2-0.2,0.4-0.5,0.6-0.8c0.1-0.3,0.2-0.7,0.2-1c0-0.4-0.1-0.7-0.2-1
		c-0.1-0.3-0.3-0.6-0.6-0.8s-0.5-0.4-0.8-0.6C8,68.2,7.7,68.1,7.3,68.1z"/>
	<path fill="#777676" d="M4.4,78.6h1.9v7.1h4.5v1.6H4.4V78.6z"/>
	<path fill="#777676" d="M6.4,90.8h1.9v8.7H6.4V90.8z"/>
	<path fill="#777676" d="M11.8,107.2c0,0.6-0.1,1.2-0.4,1.8c-0.2,0.5-0.6,1-1,1.4c-0.4,0.4-0.9,0.7-1.4,1c-0.5,0.2-1.1,0.4-1.7,0.4
		c-0.6,0-1.2-0.1-1.8-0.4c-0.5-0.2-1-0.6-1.4-1c-0.4-0.4-0.7-0.9-1-1.4c-0.2-0.5-0.4-1.1-0.4-1.8s0.1-1.2,0.4-1.8
		c0.2-0.5,0.6-1,1-1.4s0.9-0.7,1.4-1c0.5-0.2,1.1-0.4,1.8-0.4c0.6,0,1.2,0.1,1.7,0.4c0.5,0.2,1,0.6,1.4,1c0.4,0.4,0.7,0.9,1,1.4
		C11.7,106,11.8,106.6,11.8,107.2z M7.3,104.6c-0.4,0-0.7,0.1-1,0.2c-0.3,0.1-0.6,0.3-0.8,0.6c-0.2,0.2-0.4,0.5-0.6,0.8
		c-0.1,0.3-0.2,0.7-0.2,1c0,0.4,0.1,0.7,0.2,1c0.1,0.3,0.3,0.6,0.6,0.8c0.2,0.2,0.5,0.4,0.8,0.6c0.3,0.1,0.7,0.2,1,0.2
		s0.7-0.1,1-0.2c0.3-0.1,0.6-0.3,0.8-0.6c0.2-0.2,0.4-0.5,0.6-0.8c0.1-0.3,0.2-0.7,0.2-1c0-0.4-0.1-0.7-0.2-1
		c-0.1-0.3-0.3-0.6-0.6-0.8s-0.5-0.4-0.8-0.6C8,104.7,7.7,104.6,7.3,104.6z"/>
</g>
</svg>
