<?xml version="1.0" encoding="utf-8"?>
<!-- Generator: Adobe Illustrator 17.1.0, SVG Export Plug-In . SVG Version: 6.00 Build 0)  -->
<!DOCTYPE svg PUBLIC "-//W3C//DTD SVG 1.1//EN" "http://www.w3.org/Graphics/SVG/1.1/DTD/svg11.dtd">
<svg version="1.1" id="Layer_1" xmlns="http://www.w3.org/2000/svg" xmlns:xlink="http://www.w3.org/1999/xlink" x="0px" y="0px"
	 viewBox="0 0 13.3 87.7" enable-background="new 0 0 13.3 87.7" xml:space="preserve">
<g>
	<path fill="#777676" d="M11,10.2c-0.2,0.3-0.4,0.7-0.7,1c-0.3,0.3-0.6,0.5-0.9,0.7c-0.3,0.2-0.7,0.4-1.1,0.5
		c-0.4,0.1-0.8,0.2-1.2,0.2c-0.6,0-1.2-0.1-1.7-0.3c-0.5-0.2-1-0.5-1.4-0.9c-0.4-0.4-0.7-0.9-0.9-1.4C2.8,9.3,2.7,8.7,2.7,8.1
		c0-0.6,0.1-1.2,0.3-1.7C3.3,5.9,3.6,5.4,4,5s0.9-0.7,1.4-0.9C6,3.8,6.5,3.7,7.1,3.7c0.4,0,0.8,0.1,1.2,0.2C8.7,4,9.1,4.2,9.4,4.3
		c0.3,0.2,0.6,0.4,0.9,0.7C10.5,5.3,10.8,5.6,11,6c-0.2,0.1-0.3,0.2-0.4,0.2c-0.1,0.1-0.2,0.1-0.3,0.2c-0.1,0.1-0.2,0.1-0.4,0.2
		C9.7,6.6,9.5,6.7,9.3,6.8C9.1,6.4,8.8,6.1,8.4,5.9C8,5.7,7.6,5.5,7.1,5.5c-0.4,0-0.7,0.1-1,0.2C5.8,5.9,5.5,6.1,5.3,6.3
		C5.1,6.5,4.9,6.8,4.8,7.1c-0.1,0.3-0.2,0.6-0.2,1c0,0.4,0.1,0.7,0.2,1c0.1,0.3,0.3,0.6,0.6,0.8c0.2,0.2,0.5,0.4,0.8,0.6
		c0.3,0.1,0.6,0.2,1,0.2c0.5,0,0.9-0.1,1.3-0.4c0.4-0.2,0.7-0.6,0.9-1c0.2,0.1,0.4,0.2,0.5,0.3s0.2,0.1,0.3,0.2
		c0.1,0.1,0.2,0.1,0.3,0.2C10.7,10,10.8,10.1,11,10.2z"/>
	<path fill="#777676" d="M11.3,20.3c0,0.6-0.1,1.2-0.4,1.8c-0.2,0.5-0.6,1-1,1.4c-0.4,0.4-0.9,0.7-1.4,1c-0.5,0.2-1.1,0.4-1.7,0.4
		c-0.6,0-1.2-0.1-1.8-0.4s-1-0.6-1.4-1s-0.7-0.9-1-1.4c-0.2-0.5-0.4-1.1-0.4-1.8s0.1-1.2,0.4-1.8c0.2-0.5,0.6-1,1-1.4
		c0.4-0.4,0.9-0.7,1.4-1c0.5-0.2,1.1-0.4,1.8-0.4c0.6,0,1.2,0.1,1.7,0.4c0.5,0.2,1,0.6,1.4,1c0.4,0.4,0.7,0.9,1,1.4
		C11.2,19.1,11.3,19.7,11.3,20.3z M6.8,17.6c-0.4,0-0.7,0.1-1,0.2C5.5,18,5.2,18.2,5,18.4c-0.2,0.2-0.4,0.5-0.6,0.8s-0.2,0.7-0.2,1
		c0,0.4,0.1,0.7,0.2,1c0.1,0.3,0.3,0.6,0.6,0.8c0.2,0.2,0.5,0.4,0.8,0.6c0.3,0.1,0.7,0.2,1,0.2c0.4,0,0.7-0.1,1-0.2
		c0.3-0.1,0.6-0.3,0.8-0.6c0.2-0.2,0.4-0.5,0.6-0.8c0.1-0.3,0.2-0.7,0.2-1c0-0.4-0.1-0.7-0.2-1c-0.1-0.3-0.3-0.6-0.6-0.8
		c-0.2-0.2-0.5-0.4-0.8-0.6C7.5,17.7,7.2,17.6,6.8,17.6z"/>
	<path fill="#777676" d="M4.5,36.8H3v-8.7h1.5h0.7l3.9,5.4v-5.4h1.6v8.7H9.1l-4.6-6.4V36.8z"/>
	<path fill="#777676" d="M5.9,41.9l-2.8,0v-1.6h7.4v1.6l-2.7,0V49H5.9V41.9z"/>
	<path fill="#777676" d="M2,61.2l3.9-8.7h1.9l3.9,8.7H9.9L9,59.2H4.6l-0.9,1.9H2z M6.9,54.1l-1.5,3.4h2.9L6.9,54.1L6.9,54.1z"/>
	<path fill="#777676" d="M11,71c-0.2,0.3-0.4,0.7-0.7,1c-0.3,0.3-0.6,0.5-0.9,0.7c-0.3,0.2-0.7,0.4-1.1,0.5
		c-0.4,0.1-0.8,0.2-1.2,0.2c-0.6,0-1.2-0.1-1.7-0.3c-0.5-0.2-1-0.5-1.4-0.9c-0.4-0.4-0.7-0.9-0.9-1.4c-0.2-0.5-0.3-1.1-0.3-1.7
		c0-0.6,0.1-1.2,0.3-1.7c0.2-0.5,0.5-1,0.9-1.4c0.4-0.4,0.9-0.7,1.4-0.9c0.5-0.2,1.1-0.3,1.7-0.3c0.4,0,0.8,0.1,1.2,0.2
		c0.4,0.1,0.7,0.3,1.1,0.5c0.3,0.2,0.6,0.4,0.9,0.7c0.3,0.3,0.5,0.6,0.7,0.9c-0.2,0.1-0.3,0.2-0.4,0.2c-0.1,0.1-0.2,0.1-0.3,0.2
		c-0.1,0.1-0.2,0.1-0.4,0.2c-0.1,0.1-0.3,0.1-0.5,0.2c-0.2-0.4-0.5-0.7-0.9-0.9c-0.4-0.2-0.8-0.3-1.3-0.3c-0.4,0-0.7,0.1-1,0.2
		c-0.3,0.1-0.6,0.3-0.8,0.6s-0.4,0.5-0.6,0.8c-0.1,0.3-0.2,0.6-0.2,1c0,0.4,0.1,0.7,0.2,1c0.1,0.3,0.3,0.6,0.6,0.8s0.5,0.4,0.8,0.6
		c0.3,0.1,0.6,0.2,1,0.2c0.5,0,0.9-0.1,1.3-0.4c0.4-0.2,0.7-0.6,0.9-1c0.2,0.1,0.4,0.2,0.5,0.3s0.2,0.1,0.3,0.2
		c0.1,0.1,0.2,0.1,0.3,0.2C10.7,70.8,10.8,70.9,11,71z"/>
	<path fill="#777676" d="M5.9,78.4l-2.8,0v-1.6h7.4v1.6l-2.7,0v7.1H5.9V78.4z"/>
</g>
</svg>
