<?xml version="1.0" encoding="utf-8"?>
<!-- Generator: Adobe Illustrator 17.1.0, SVG Export Plug-In . SVG Version: 6.00 Build 0)  -->
<!DOCTYPE svg PUBLIC "-//W3C//DTD SVG 1.1//EN" "http://www.w3.org/Graphics/SVG/1.1/DTD/svg11.dtd">
<svg version="1.1" id="Layer_1" xmlns="http://www.w3.org/2000/svg" xmlns:xlink="http://www.w3.org/1999/xlink" x="0px" y="0px"
	 viewBox="0 0 13 64.1" enable-background="new 0 0 13 64.1" xml:space="preserve">
<g>
	<path fill="#777676" d="M1.5,12.1l3.9-8.7h1.9l3.9,8.7H9.5l-0.9-1.9H4.2l-0.9,1.9H1.5z M6.5,5.1L5,8.4h2.9L6.5,5.1L6.5,5.1z"/>
	<path fill="#777676" d="M3,15.6h4.1c0.4,0,0.8,0,1.1,0.1c0.3,0.1,0.6,0.2,0.9,0.4c0.2,0.2,0.4,0.4,0.6,0.7c0.1,0.3,0.2,0.6,0.2,1
		c0,0.4-0.1,0.8-0.3,1.1c-0.2,0.3-0.5,0.5-0.9,0.7c0.5,0.2,0.9,0.4,1.2,0.8c0.3,0.4,0.4,0.8,0.4,1.4c0,0.4-0.1,0.8-0.3,1.1
		c-0.2,0.3-0.4,0.6-0.7,0.8c-0.3,0.2-0.6,0.4-1,0.4c-0.4,0.1-0.7,0.1-1.1,0.1H3V15.6z M4.9,19.1h1.9c0.3,0,0.6-0.1,0.8-0.2
		C7.9,18.7,8,18.4,8,18.1c0-0.2,0-0.4-0.1-0.5c-0.1-0.1-0.2-0.2-0.3-0.3c-0.1-0.1-0.3-0.1-0.4-0.2c-0.2,0-0.3,0-0.5,0H4.9V19.1z
		 M4.9,22.8h2c0.2,0,0.4,0,0.5-0.1c0.2,0,0.3-0.1,0.5-0.2c0.1-0.1,0.2-0.2,0.3-0.3c0.1-0.1,0.1-0.3,0.1-0.6c0-0.4-0.1-0.8-0.4-1
		s-0.6-0.3-1-0.3H4.9V22.8z"/>
	<path fill="#777676" d="M10.9,32c0,0.6-0.1,1.2-0.4,1.8c-0.2,0.5-0.6,1-1,1.4c-0.4,0.4-0.9,0.7-1.4,1c-0.5,0.2-1.1,0.4-1.7,0.4
		c-0.6,0-1.2-0.1-1.8-0.4s-1-0.6-1.4-1c-0.4-0.4-0.7-0.9-1-1.4C2,33.3,1.9,32.7,1.9,32s0.1-1.2,0.4-1.8c0.2-0.5,0.6-1,1-1.4
		s0.9-0.7,1.4-1c0.5-0.2,1.1-0.4,1.8-0.4c0.6,0,1.2,0.1,1.7,0.4c0.5,0.2,1,0.6,1.4,1c0.4,0.4,0.7,0.9,1,1.4
		C10.8,30.8,10.9,31.4,10.9,32z M6.4,29.4c-0.4,0-0.7,0.1-1,0.2c-0.3,0.1-0.6,0.3-0.8,0.6C4.3,30.4,4.1,30.7,4,31s-0.2,0.7-0.2,1
		c0,0.4,0.1,0.7,0.2,1c0.1,0.3,0.3,0.6,0.6,0.8c0.2,0.2,0.5,0.4,0.8,0.6c0.3,0.1,0.7,0.2,1,0.2s0.7-0.1,1-0.2
		c0.3-0.1,0.6-0.3,0.8-0.6c0.2-0.2,0.4-0.5,0.6-0.8C9,32.8,9,32.4,9,32c0-0.4-0.1-0.7-0.2-1c-0.1-0.3-0.3-0.6-0.6-0.8
		c-0.2-0.2-0.5-0.4-0.8-0.6C7.1,29.5,6.8,29.4,6.4,29.4z"/>
	<path fill="#777676" d="M10.1,45.3c0,1.2-0.3,2.1-1,2.6c-0.7,0.6-1.6,0.9-2.7,0.9c-1.2,0-2.1-0.3-2.7-0.9c-0.6-0.6-1-1.4-1-2.6
		v-5.4h1.9v5.4c0,0.2,0,0.5,0.1,0.7c0,0.2,0.1,0.4,0.3,0.6c0.1,0.2,0.3,0.3,0.5,0.4c0.2,0.1,0.5,0.2,0.9,0.2c0.7,0,1.2-0.2,1.4-0.5
		c0.3-0.3,0.4-0.8,0.4-1.4v-5.4h1.9V45.3z"/>
	<path fill="#777676" d="M5.5,53.7l-2.8,0v-1.6h7.4v1.6l-2.7,0v7.1H5.5V53.7z"/>
</g>
</svg>
