<svg xmlns="http://www.w3.org/2000/svg" viewBox="85.3 2362.6 914.7 394.4" enable-background="new 85.3 2362.6 914.7 394.4"><g fill="#b7b7b7"><path d="m898 2449l60.6 154 41.4 102.5v52.5l-102-1h-121.2l60.6-154z"/><path d="m191.1 2412.7h89.9v346.2h-89.9z"/><path d="m766.5 2547l51.4 105 51.3 105h-102.7-102.7l51.3-105z"/><path d="m310.2 2362.6v86.1h14.4v11.9c6.9.8 14.7 6.1 14.7 6.1h18l-.6 16.9h-6.1c0 6-26 31.6-26 31.6h-34.6c0 0-26-25.6-26-31.6h-6.1l-.6-16.9h18c0 0 7.8-5.3 14.7-6.1v-11.9h14.4v-86.1h5.8"/><path d="m294.2 2514.8h26.8v245.6h-26.8z"/></g><g fill="#fff"><path d="m260 2460h14v15h-14z"/><path d="m260 2484h14v14h-14z"/><path d="m260 2508h14v15h-14z"/><path d="m260 2531h14v15h-14z"/><path d="m260 2554h14v14h-14z"/><path d="m260 2577h14v14h-14z"/><path d="m238 2460h14v15h-14z"/><path d="m238 2484h14v14h-14z"/><path d="m238 2508h14v15h-14z"/><path d="m238 2531h14v15h-14z"/><path d="m238 2554h14v14h-14z"/><path d="m238 2577h14v14h-14z"/><path d="m260 2440h14v15h-14z"/><path d="m218 2440h14v15h-14z"/><path d="m238 2440h14v15h-14z"/><path d="m195 2440h15v15h-15z"/><path d="m218 2460h14v15h-14z"/><path d="m195 2460h15v15h-15z"/></g><path fill="#b7b7b7" d="m85.3 2759.4v-255.4h6.6v-27.3h10.1v-10.1h24.4v8.1h37.9v-8.1h13.3v6.1h6.7v36.3h6.7v250.4z"/><g fill="#fff"><path d="m150 2508h82v251h-82z"/><path d="m317 2759h-60v-157.7l30-13.3 30 13.3z"/><path d="m218 2483h14v14h-14z"/><path d="m196 2483h14v14h-14z"/><path d="m238 2618h14v15h-14z"/><path d="m238 2642h14v14h-14z"/><path d="m238 2666h14v15h-14z"/><path d="m238 2598h14v15h-14z"/><path d="m766.5 2547.9l25.2 50.5-5.7 10.4-3.2 12-10 3.2-9.3 34.1-24.7-24.2-21 16.7-.9-2.2z"/><path d="m897.9 2451.6l33.1 81.3-15.5 24.1 18.8 16.3-7.2 13.5c0 0-7.6 35.2-11.6 38.7-2.2 1.9-21.7-12-37.9-15.5-13.4-2.9-24.1 4.8-24.1 4.8s3-27.1 0-22.3c-3 4.8-32.6 52.4-32.6 52.4l77-193.3"/></g></svg>