<svg xmlns="http://www.w3.org/2000/svg" viewBox="0 0 915 395.4" enable-background="new 0 0 915 395.4"><g fill="#b7b7b7"><path d="m813 86.4l60.6 154 41.4 102.5v52.5l-102-1h-121.2l60.6-154z"/><path d="m106.1 50.1h89.9v346.2h-89.9z"/><path d="m681.5 184.4l51.4 105 51.3 105h-102.7-102.7l51.3-105z"/><path d="m225.2 0v86.1h14.4v11.9c6.9.8 14.7 6.1 14.7 6.1h18l-.6 16.9h-6.1c0 6-26 31.6-26 31.6h-34.6c0 0-26-25.6-26-31.6h-6.1l-.6-16.9h18c0 0 7.8-5.3 14.7-6.1v-11.9h14.4v-86.1h5.8"/><path d="m209.2 152.2h26.8v245.6h-26.8z"/></g><g fill="#fff"><path d="m175 97.4h14v15h-14z"/><path d="m175 121.4h14v14h-14z"/><path d="m175 145.4h14v15h-14z"/><path d="m175 168.4h14v15h-14z"/><path d="m175 191.4h14v14h-14z"/><path d="m175 214.4h14v14h-14z"/><path d="m153 97.4h14v15h-14z"/><path d="m153 121.4h14v14h-14z"/><path d="m153 145.4h14v15h-14z"/><path d="m153 168.4h14v15h-14z"/><path d="m153 191.4h14v14h-14z"/><path d="m153 214.4h14v14h-14z"/><path d="m175 77.4h14v15h-14z"/><path d="m133 77.4h14v15h-14z"/><path d="m153 77.4h14v15h-14z"/><path d="m110 77.4h15v15h-15z"/><path d="m133 97.4h14v15h-14z"/><path d="m110 97.4h15v15h-15z"/></g><path fill="#b7b7b7" d="m.3 396.8v-255.4h6.6v-27.3h10.1v-10h24.4v8h37.9v-8h13.3v6h6.7v36.3h6.7v250.4z"/><g fill="#fff"><path d="m65 145.4h82v251h-82z"/><path d="m232 396.4h-60v-157.7l30-13.3 30 13.3z"/><path d="m133 120.4h14v14h-14z"/><path d="m111 120.4h14v14h-14z"/><path d="m153 255.4h14v15h-14z"/><path d="m153 279.4h14v14h-14z"/><path d="m153 303.4h14v15h-14z"/><path d="m153 235.4h14v15h-14z"/><path d="m681.5 185.3l25.2 50.5-5.7 10.4-3.2 12-10 3.2-9.3 34.1-24.7-24.2-21 16.7-.9-2.1z"/><path d="m812.9 89l33.1 81.3-15.5 24.2 18.8 16.3-7.2 13.5c0 0-7.6 35.2-11.6 38.7-2.2 1.9-21.7-12-37.9-15.5-13.4-2.9-24.1 4.8-24.1 4.8s3-27.1 0-22.3-32.6 52.4-32.6 52.4l77-193.4"/></g></svg>